<svg xmlns="http://www.w3.org/2000/svg" width="95" height="95" viewBox="0 0 32 46"><g><g><g><path fill="#c4d600" d="M16.01 25.33c-5.25 0-9.5-4.25-9.5-9.5s4.25-9.5 9.5-9.5 9.5 4.25 9.5 9.5-4.25 9.5-9.5 9.5m0-25.33C7.27 0 .18 7.09.18 15.83c0 1.23.14 2.45.42 3.64 1.65 6.99 14.48 25.74 15.3 25.74.82 0 13.88-18.75 15.53-25.74.28-1.19.42-2.41.42-3.64C31.85 7.09 24.76 0 16.01 0"/></g><g><path fill="#c4d600" d="M20.24 15.83a4.225 4.225 0 0 1-4.22 4.24 4.225 4.225 0 0 1-4.24-4.22A4.225 4.225 0 0 1 16 11.61h.01c2.33-.01 4.22 1.88 4.23 4.21v.01"/></g></g></g></svg>