<svg xmlns="http://www.w3.org/2000/svg" width="98" height="98" viewBox="0 0 59 47"><g><g><g><path fill="#ff6b00" d="M55.068 16.221l3.989-3.989C51.324 4.659 40.967.04 29.596.04 18.225.04 7.878 4.659.145 12.232l3.99 3.99C11.034 9.618 19.91 5.64 29.594 5.64c9.686 0 18.56 3.979 25.473 10.581z"/></g><g><path fill="#ff6b00" d="M46.742 24.559l4.086-4.086C44.844 15.108 37.516 11.94 29.6 11.94c-7.915 0-15.243 3.168-21.216 8.533l4.085 4.086c4.96-4.427 10.838-6.976 17.131-6.976 6.293 0 12.17 2.56 17.141 6.976z"/></g><g><path fill="#ff6b00" d="M29.6 23.31c-4.906 0-9.557 1.685-13.685 4.693l4.032 4.032c2.997-1.973 6.25-3.05 9.653-3.05 3.403 0 6.667 1.077 9.664 3.05l4.022-4.032c-4.128-3.008-8.768-4.693-13.686-4.693z"/></g><g><path fill="#ff6b00" d="M29.602 46.925a5.237 5.237 0 1 0 0-10.475 5.237 5.237 0 0 0 0 10.475z"/></g></g></g></svg>