<svg id="Layer_37" data-name="Layer 37" xmlns="http://www.w3.org/2000/svg" xmlns:xlink="http://www.w3.org/1999/xlink" width="50" height="50" viewBox="0 0 50 50">
  <defs>
    <style>
      .cls-1 {
        fill: none;
      }

      .cls-2 {
        fill: #0c97a3;
      }

      .cls-3 {
        fill: #40e464;
      }

      .cls-4 {
        fill: #d7f4f9;
      }

      .cls-5 {
        fill: #fbce9d;
      }

      .cls-6 {
        clip-path: url(#clip-path);
      }

      .cls-7 {
        fill: #d8a97c;
      }

      .cls-8 {
        fill: #6b5b4b;
      }

      .cls-9 {
        fill: #016974;
      }

      .cls-10 {
        fill: #404040;
      }
    </style>
    <clipPath id="clip-path">
      <rect class="cls-1" x="24.917" y="-1.167" width="26.583" height="52.75"/>
    </clipPath>
  </defs>
  <title>resellers-2</title>
  <circle class="cls-2" cx="24.958" cy="25.042" r="24.792"/>
  <path class="cls-3" d="M50,7.656A7.615,7.615,0,1,1,42.383.042,7.614,7.614,0,0,1,50,7.656Z"/>
  <path class="cls-4" d="M40.962,11.007h0a1.1,1.1,0,0,1-.78-.323L38.527,9.029a1.1,1.1,0,0,1,1.559-1.56l.876.875,3.716-3.717a1.1,1.1,0,1,1,1.56,1.56l-4.5,4.5A1.1,1.1,0,0,1,40.962,11.007Z"/>
  <path class="cls-5" d="M45.417,39.041a10.848,10.848,0,0,0-10.789-9.725H29.545a1.166,1.166,0,0,1-1.167-1.167V27.6a1.183,1.183,0,0,1,.791-1.1c4.961-1.866,8.359-10.006,7.669-15.759A11.922,11.922,0,0,0,25.026.252h-.041A11.967,11.967,0,0,0,12.99,12.218c0,5.15,3.254,12.614,7.818,14.3a1.15,1.15,0,0,1,.731,1.086v.543a1.167,1.167,0,0,1-1.167,1.167H15.289A10.849,10.849,0,0,0,4.5,39.041a24.789,24.789,0,0,0,40.918,0Z"/>
  <g class="cls-6">
    <path class="cls-7" d="M45.417,39.041a10.848,10.848,0,0,0-10.789-9.725H29.545a1.166,1.166,0,0,1-1.167-1.167V27.6a1.183,1.183,0,0,1,.791-1.1c4.961-1.866,8.359-10.006,7.669-15.759A11.922,11.922,0,0,0,25.026.252h-.041A11.967,11.967,0,0,0,12.99,12.218c0,5.15,3.254,12.614,7.818,14.3a1.15,1.15,0,0,1,.731,1.086v.543a1.167,1.167,0,0,1-1.167,1.167H15.289A10.849,10.849,0,0,0,4.5,39.041a24.789,24.789,0,0,0,40.918,0Z"/>
  </g>
  <path class="cls-8" d="M28.8,5.9a15.27,15.27,0,0,1,8.082,5.4c-.014-.189-.02-.382-.042-.566A11.922,11.922,0,0,0,25.026.252h-.041a11.961,11.961,0,0,0-11.8,9.9h0c.153.215.3.433.466.641.06-.074.12-.148.182-.22a5.92,5.92,0,0,1,6.995-1.429A5.987,5.987,0,0,0,28.8,5.9Z"/>
  <path class="cls-9" d="M45.417,39.041a10.848,10.848,0,0,0-10.789-9.725H31.8l-6.839,6.839-6.839-6.839h-2.83A10.849,10.849,0,0,0,4.5,39.041a24.789,24.789,0,0,0,40.918,0Z"/>
  <path class="cls-10" d="M36.927,46.749c.585-.324,1.154-.675,1.709-1.043V40.43H36.927Z"/>
  <path class="cls-10" d="M12.99,46.749V40.43H11.28v5.276C11.836,46.074,12.4,46.425,12.99,46.749Z"/>
</svg>
