<svg width="100px" height="49px" viewBox="0 0 100 49" version="1.1" xmlns="http://www.w3.org/2000/svg" xmlns:xlink="http://www.w3.org/1999/xlink">
   <g id="canvas" stroke="none" stroke-width="1" fill="none" fill-rule="evenodd">
       <path d="M-1.48540102,32.3897888 L4.61359898,3.8327888 L13.049599,2.6927888 L10.313599,15.5177888 C12.650599,14.0927888 13.847599,13.9217888 14.987599,13.9217888 C18.977599,13.9217888 21.713599,16.4297888 21.713599,23.6687888 C21.713599,30.3377888 18.179599,42.9347888 6.09559898,42.9347888 C0.851598976,42.9347888 -1.88440102,40.1987888 -1.88440102,35.6387888 C-1.88440102,34.6697888 -1.77040102,33.5867888 -1.48540102,32.3897888 Z M15.956599,23.4407888 C15.956599,20.6477888 14.987599,17.9687888 12.935599,17.9687888 C12.137599,17.9687888 10.199599,18.2537888 9.57259898,18.9947888 L6.43759898,33.4727888 C6.32359898,33.9287888 6.26659898,34.3847888 6.26659898,34.7837888 C6.26659898,36.4367888 7.23559898,37.4057888 9.28759898,37.4057888 C12.992599,37.4057888 15.956599,29.4257888 15.956599,23.4407888 Z M42.974599,14.0927888 L51.182599,14.0927888 L47.078599,33.4727888 C46.907599,34.2137888 46.850599,34.7837888 46.850599,35.2967888 C46.850599,36.8927888 47.591599,37.7477888 49.187599,37.7477888 C51.410599,37.7477888 52.949599,35.2397888 53.804599,32.3897888 L56.198599,32.3897888 C52.949599,41.6807888 47.819599,42.9347888 44.741599,42.9347888 C41.549599,42.9347888 39.497599,41.1107888 39.155599,37.6907888 C37.388599,40.3127888 34.709599,42.9347888 30.662599,42.9347888 C26.786599,42.9347888 23.081599,40.5407888 23.081599,33.7577888 C23.081599,26.0627888 27.812599,13.8077888 37.730599,13.8077888 C40.979599,13.8077888 42.347599,15.0617888 42.347599,16.7147888 L42.347599,17.1137888 L42.974599,14.0927888 Z M39.497599,17.3417888 C34.652599,17.3417888 31.517599,27.6017888 31.517599,32.9597888 C31.517599,37.3487888 33.341599,37.4057888 34.367599,37.4057888 C36.020599,37.4057888 38.414599,35.6957888 39.098599,32.3897888 L41.834599,19.5077888 C41.834599,18.8237888 41.321599,17.3417888 39.497599,17.3417888 Z M53.804599,32.3897888 L59.903599,3.8327888 L68.339599,2.6927888 L65.603599,15.5177888 C67.940599,14.0927888 69.137599,13.9217888 70.277599,13.9217888 C74.267599,13.9217888 77.003599,16.4297888 77.003599,23.6687888 C77.003599,30.3377888 73.469599,42.9347888 61.385599,42.9347888 C56.141599,42.9347888 53.405599,40.1987888 53.405599,35.6387888 C53.405599,34.6697888 53.519599,33.5867888 53.804599,32.3897888 Z M71.246599,23.4407888 C71.246599,20.6477888 70.277599,17.9687888 68.225599,17.9687888 C67.427599,17.9687888 65.489599,18.2537888 64.862599,18.9947888 L61.727599,33.4727888 C61.613599,33.9287888 61.556599,34.3847888 61.556599,34.7837888 C61.556599,36.4367888 62.525599,37.4057888 64.577599,37.4057888 C68.282599,37.4057888 71.246599,29.4257888 71.246599,23.4407888 Z M86.750599,32.7887888 C86.750599,36.3797888 88.289599,37.5197888 90.284599,37.5197888 C92.450599,37.5197888 95.186599,36.0947888 97.010599,34.4987888 C95.813599,40.9967888 91.709599,42.9347888 87.149599,42.9347888 C81.848599,42.9347888 78.314599,40.3127888 78.314599,33.8717888 C78.314599,27.3167888 82.019599,13.5797888 93.704599,13.5797888 C98.777599,13.5797888 99.974599,16.2017888 99.974599,19.0517888 C99.974599,25.6637888 93.704599,30.6797888 86.864599,31.0787888 C86.807599,31.6487888 86.750599,32.2757888 86.750599,32.7887888 Z M95.585599,18.9377888 C95.585599,17.5127888 95.243599,16.6007888 94.160599,16.6007888 C91.310599,16.6007888 88.460599,22.9277888 87.263599,28.3427888 C91.709599,28.1147888 95.585599,23.7257888 95.585599,18.9377888 Z" id="babe" fill="#000" fill-rule="nonzero" transform="translate(49.045099, 22.813789) rotate(-7.000000) translate(-49.045099, -22.813789) "></path>
   </g>
</svg>